<svg t="1718026521470" class="icon" viewBox="0 0 1024 1024" version="1.1" xmlns="http://www.w3.org/2000/svg" p-id="8685"
    width="200" height="200">
    <path
        d="M722.090667 248.533333a148.224 148.224 0 1 0 98.730666 55.808 147.285333 147.285333 0 0 0-98.730666-55.808m10.368-84.693333a233.6 233.6 0 1 1-172.245334 47.616 232.874667 232.874667 0 0 1 172.245334-47.616z"
        fill="#777" p-id="8686"></path>
    <path
        d="M817.322667 525.952a42.666667 42.666667 0 0 1 59.861333 7.338667l78.848 100.906666a42.666667 42.666667 0 0 1-7.338667 59.904 42.666667 42.666667 0 0 1-59.904-7.381333l-78.805333-100.864a42.666667 42.666667 0 0 1 7.338667-59.904z"
        fill="#777" p-id="8687"></path>
    <path
        d="M42.666667 291.328m42.666666 0l213.333334 0q42.666667 0 42.666666 42.666667l0 0q0 42.666667-42.666666 42.666666l-213.333334 0q-42.666667 0-42.666666-42.666666l0 0q0-42.666667 42.666666-42.666667Z"
        fill="#777" p-id="8688"></path>
    <path
        d="M42.666667 547.328m42.666666 0l256 0q42.666667 0 42.666667 42.666667l0 0q0 42.666667-42.666667 42.666666l-256 0q-42.666667 0-42.666666-42.666666l0 0q0-42.666667 42.666666-42.666667Z"
        fill="#777" p-id="8689"></path>
    <path
        d="M42.666667 803.328m42.666666 0l810.666667 0q42.666667 0 42.666667 42.666667l0 0q0 42.666667-42.666667 42.666666l-810.666667 0q-42.666667 0-42.666666-42.666666l0 0q0-42.666667 42.666666-42.666667Z"
        fill="#777" p-id="8690"></path>
</svg>