<svg t="1729914987237" class="icon" viewBox="0 0 1024 1024" version="1.1" xmlns="http://www.w3.org/2000/svg"
    p-id="20537" width="200" height="200">
    <path
        d="M865.28 244.679111c-0.284444-0.284444-61.098667 59.790222-182.101333 180.622222l-84.878223-84.906666 180.906667-180.906667a242.574222 242.574222 0 0 0-296.817778 36.693333 244.423111 244.423111 0 0 0-63.402666 235.804445l1.792 6.712889-283.477334 283.392a16.042667 16.042667 0 0 0 0 22.584889l141.368889 141.397333a16.042667 16.042667 0 0 0 22.613334 0l283.306666-283.306667 6.712889 1.820445a244.252444 244.252444 0 0 0 235.975111-63.317334A244.081778 244.081778 0 0 0 865.28 244.679111z"
        fill="#ffffff" p-id="20538"></path>
</svg>